<svg width="181" height="251" viewBox="0 0 181 251" fill="none" xmlns="http://www.w3.org/2000/svg">
<path d="M141.07 59.2336L144.811 57.0737V49.8145L141.07 59.2336Z" fill="white"/>
<path d="M60.4144 120.878C60.3262 120.793 60.2346 120.725 60.1395 120.672C59.7659 120.463 51.8513 115.889 51.8513 115.889V76.6056C51.8513 75.6869 51.6332 75.0175 51.1993 74.5965C51.1147 74.5153 51.0265 74.448 50.936 74.3958C50.559 74.1777 42.1664 69.3335 42.0806 69.2825C41.7001 69.0563 41.2663 69.083 40.7791 69.3637L28.4657 76.4733C27.7592 76.8828 27.2013 77.3515 26.7929 77.8781C26.3869 78.4071 25.938 79.2724 25.4485 80.4753L1.06414 141.889C0.357703 143.721 0.00390625 145.723 0.00390625 147.9V161.209C0.00390625 162.13 0.219662 162.799 0.655822 163.218C0.745142 163.304 0.836785 163.374 0.931905 163.427C1.30543 163.637 9.69802 168.488 9.7885 168.54C10.1643 168.758 10.5924 168.728 11.0749 168.45L27.8949 158.738V161.303C27.8949 162.224 28.1119 162.893 28.5469 163.312C28.6315 163.394 28.7197 163.462 28.8102 163.514C29.186 163.731 37.5867 168.58 37.6761 168.633C38.0519 168.853 38.4823 168.823 38.966 168.544L49.6484 162.375C50.2458 162.031 50.7632 161.398 51.1982 160.477C51.632 159.556 51.8501 158.637 51.8501 157.714V144.909L58.8635 140.859C59.4609 140.513 59.9782 139.882 60.4132 138.959C60.8471 138.04 61.0651 137.119 61.0651 136.198V122.89C61.0651 121.969 60.8482 121.3 60.4144 120.878Z" fill="url(#paint0_linear_35_62825)"/>
<path opacity="0.15" d="M35.6019 82.9874L35.5578 83.1405C35.1762 83.6753 34.7609 84.4943 34.3131 85.5974L9.93343 147.01C9.61675 147.819 9.37663 148.659 9.21307 149.532L0.282227 144.379C0.457387 143.516 0.685906 142.687 0.992146 141.89L25.3719 80.476C25.8637 79.2754 26.3115 78.4019 26.7256 77.8776C26.7256 77.8776 26.7256 77.8672 26.736 77.8672L35.6019 82.9874Z" fill="black"/>
<path opacity="0.3" d="M9.68368 168.475C8.67912 167.896 1.2876 163.628 0.927999 163.431C0.839839 163.377 0.742398 163.3 0.655398 163.213C0.218078 162.798 0 162.132 0 161.204V147.906C0 146.683 0.131078 145.526 0.349158 144.412L9.21388 149.532C8.9842 150.635 8.87516 151.804 8.87516 153.026V166.335C8.87516 167.252 9.09324 167.918 9.51896 168.332C9.57464 168.388 9.62916 168.431 9.68368 168.475Z" fill="black"/>
<path opacity="0.3" d="M37.1751 110.193V133.296L29.707 128.983L37.1751 110.193Z" fill="black"/>
<path opacity="0.4" d="M37.1747 133.295L25.2627 140.163L29.7066 128.982L37.1747 133.295Z" fill="black"/>
<path opacity="0.3" d="M37.4147 168.429C37.4692 168.473 37.5132 168.516 37.5678 168.56C36.5736 167.991 29.1613 163.712 28.8121 163.516C28.7135 163.462 28.6265 163.396 28.5499 163.309C28.1126 162.893 27.8945 162.217 27.8945 161.299V158.734L36.7592 153.613V166.42C36.7592 167.337 36.9773 168.015 37.4147 168.429Z" fill="black"/>
<path opacity="0.15" d="M60.0371 120.62C59.6879 120.466 59.2947 120.511 58.8689 120.761L51.8486 124.812V115.893C51.8486 115.893 59.065 120.051 60.0371 120.62Z" fill="black"/>
<path opacity="0.4" d="M50.8762 74.3613C50.5155 74.1757 50.1013 74.2197 49.642 74.4819L37.3379 81.5892C36.6279 82.0045 36.0827 82.4627 35.6675 82.987L26.8027 77.8668C27.2064 77.3425 27.7632 76.8843 28.4627 76.469L40.7784 69.3617C41.2703 69.0775 41.696 69.0554 42.0776 69.2851C42.1646 69.328 50.0468 73.881 50.8762 74.3613Z" fill="white"/>
<path d="M38.9656 168.542C38.3659 168.888 37.8497 168.851 37.4158 168.431C36.9808 168.013 36.7639 167.344 36.7639 166.422V153.615L11.0745 168.448C10.476 168.794 9.9621 168.758 9.52594 168.337C9.08978 167.919 8.87402 167.249 8.87402 166.328V153.019C8.87402 150.842 9.22666 148.84 9.93426 147.008L34.3175 85.5952C34.807 84.3923 35.2559 83.5269 35.6619 82.998C36.0702 82.4713 36.6282 82.0027 37.3346 81.592L49.648 74.4824C50.2454 74.139 50.7628 74.1762 51.1978 74.5938C51.6316 75.0137 51.8497 75.683 51.8497 76.6029V124.816L58.8631 120.766C59.4605 120.421 59.9778 120.459 60.414 120.875C60.8478 121.298 61.0647 121.965 61.0647 122.886V136.194C61.0647 137.115 60.8478 138.036 60.414 138.955C59.9778 139.879 59.4605 140.51 58.8631 140.855L51.8497 144.905V157.71C51.8497 158.633 51.6328 159.552 51.1978 160.473C50.7616 161.394 50.2443 162.028 49.648 162.371L38.9656 168.542ZM37.1711 133.291V110.191L25.2648 140.165L37.1711 133.291Z" fill="url(#paint1_linear_35_62825)"/>
<path d="M117.581 68.0359C117.417 63.6117 116.859 59.6027 115.908 56.0067C114.957 52.4142 113.515 49.6267 111.587 47.642C110.907 46.9448 110.166 46.3602 109.361 45.8904C107.881 45.025 101.286 41.233 100.477 40.7609C99 39.9013 97.3134 39.4234 95.4179 39.3271C92.482 39.1821 88.9742 40.2841 84.8968 42.6389C80.8194 44.9937 77.3127 47.9401 74.3767 51.4758C71.4419 55.0138 69.0082 58.8882 67.0792 63.0978C65.1489 67.3098 63.707 71.7619 62.7582 76.4529C61.8046 81.1463 61.2478 85.799 61.0843 90.4135C60.9752 94.0768 60.9219 97.8746 60.9219 101.809C60.9219 105.744 60.9752 109.395 61.0843 112.763C61.2478 117.187 61.8046 121.199 62.7582 124.792C63.707 128.387 65.1501 131.177 67.0792 133.157C67.7543 133.851 68.4897 134.432 69.2878 134.901C70.7714 135.773 77.4542 139.627 78.3114 140.11C79.758 140.927 81.404 141.382 83.2472 141.472C86.1832 141.617 89.6899 140.515 93.7673 138.16C97.8447 135.807 101.353 132.859 104.288 129.323C107.222 125.79 109.657 121.913 111.586 117.701C113.514 113.494 114.956 109.04 115.907 104.346C116.858 99.6552 117.416 95.0001 117.58 90.3857C117.686 86.8929 117.742 83.1786 117.742 79.2439C117.742 75.3091 117.688 71.5763 117.581 68.0359ZM85.3561 112.658C85.1867 111.411 85.0812 110.043 85.0418 108.545C84.7692 101.59 84.7692 94.557 85.0418 87.452C85.0951 85.3304 85.2853 83.2934 85.6125 81.3469C85.9396 79.4005 86.4291 77.592 87.081 75.9158C87.733 74.2443 88.6041 72.7154 89.691 71.3338C90.655 70.1089 91.8452 69.0695 93.2348 68.1891C93.4146 69.4291 93.5457 70.7828 93.6246 72.256C93.8415 79.0791 93.8415 86.1099 93.6246 93.3495C93.5689 95.4734 93.3926 97.5011 93.0945 99.4313C92.7952 101.362 92.3057 103.172 91.6259 104.86C90.9461 106.551 90.0622 108.086 88.9753 109.467C87.994 110.712 86.7794 111.77 85.3561 112.658Z" fill="url(#paint2_linear_35_62825)"/>
<path opacity="0.15" d="M78.0727 139.97C76.5983 139.129 70.6707 135.711 69.2833 134.904C68.4864 134.434 67.7545 133.845 67.0782 133.157C65.1456 131.17 63.7049 128.386 62.7549 124.793C61.8048 121.201 61.248 117.184 61.0845 112.762C60.9754 109.388 60.9209 105.741 60.9209 101.811C60.9209 97.8696 60.9754 94.0706 61.0845 90.4132C61.248 85.7952 61.8048 81.1436 62.7549 76.4491C63.4207 73.1408 64.3383 69.9635 65.5064 66.8965L74.3607 72.0283C73.203 75.0849 72.297 78.2738 71.6312 81.5705C70.6707 86.265 70.1139 90.9154 69.9503 95.5346C69.8413 99.192 69.7868 102.991 69.7868 106.933C69.7868 110.863 69.8413 114.51 69.9503 117.883C70.1139 122.305 70.6707 126.322 71.6312 129.915C72.5696 133.507 74.0219 136.302 75.9441 138.278C76.589 138.943 77.3094 139.51 78.0727 139.97Z" fill="black"/>
<path opacity="0.4" d="M109.025 45.7051C107.628 44.9627 106.045 44.5474 104.287 44.45C101.35 44.3085 97.8453 45.4105 93.7621 47.7583C89.6894 50.1166 86.185 53.0641 83.2479 56.6021C80.3108 60.139 77.8759 64.0041 75.9445 68.2184C75.6499 68.8517 75.3761 69.4955 75.1035 70.1509C74.853 70.7739 74.6117 71.3956 74.3716 72.029H74.3611L65.5068 66.8971C65.7145 66.3403 65.9326 65.7835 66.1622 65.2372C66.4569 64.5168 66.7515 63.8069 67.0798 63.097C69.0124 58.8827 71.4472 55.0176 74.3727 51.4691C77.3098 47.9427 80.8246 44.9952 84.8974 42.6369C88.9702 40.2786 92.485 39.1871 95.4221 39.3286C97.3106 39.4272 99.003 39.8958 100.477 40.7589C101.242 41.2078 107.071 44.559 109.025 45.7051Z" fill="white"/>
<path opacity="0.3" d="M102.498 98.4714C102.444 100.59 102.258 102.621 101.964 104.552C101.669 106.485 101.177 108.286 100.501 109.979C100.206 110.711 99.8675 111.419 99.4858 112.097L90.6211 106.976C90.9923 106.3 91.331 105.59 91.6257 104.858C92.3019 103.166 92.7938 101.364 93.0988 99.4318C93.3935 97.4993 93.5687 95.4693 93.6232 93.3511C93.8413 86.1127 93.8413 79.082 93.6232 72.2577C93.5466 70.7833 93.4155 69.4296 93.2415 68.1849C93.2415 68.1849 93.4712 68.0214 93.7659 67.8462C95.3922 66.8741 96.7575 66.5029 97.849 66.6236C98.9302 66.7546 99.8037 67.279 100.458 68.1954C101.113 69.1129 101.582 70.368 101.888 71.9514C102.183 73.5348 102.39 75.3468 102.499 77.3779C102.706 84.2022 102.706 91.233 102.498 98.4714Z" fill="black"/>
<path opacity="0.4" d="M99.4812 112.095C99.0009 112.979 98.4546 113.809 97.8432 114.584C96.7517 115.97 95.398 117.128 93.76 118.067C92.1337 119.017 90.7788 119.42 89.6873 119.289C88.5957 119.17 87.7106 118.656 87.0344 117.75C86.3581 116.844 85.8662 115.599 85.5716 114.016C85.4846 113.58 85.4185 113.12 85.3535 112.652C86.7734 111.768 87.996 110.709 88.9669 109.464C89.5782 108.689 90.135 107.86 90.6153 106.975L99.4812 112.095Z" fill="black"/>
<path d="M93.7669 47.76C97.8443 45.4052 101.352 44.3032 104.288 44.4482C107.222 44.5978 109.657 45.6616 111.586 47.6428C113.514 49.6288 114.955 52.4151 115.907 56.0076C116.858 59.6024 117.416 63.6114 117.579 68.0368C117.686 71.5771 117.742 75.31 117.742 79.2447C117.742 83.1794 117.686 86.8938 117.579 90.3865C117.416 95.001 116.858 99.6561 115.907 104.347C114.955 109.04 113.514 113.495 111.586 117.702C109.655 121.913 107.222 125.79 104.288 129.324C101.352 132.86 97.8443 135.806 93.7669 138.161C89.6895 140.516 86.1828 141.618 83.2468 141.473C80.312 141.328 77.8784 140.262 75.9493 138.278C74.019 136.297 72.5772 133.508 71.6283 129.914C70.6748 126.32 70.1191 122.31 69.9544 117.884C69.8454 114.515 69.792 110.864 69.792 106.93C69.792 102.997 69.8454 99.1979 69.9544 95.5346C70.118 90.9201 70.6748 86.2674 71.6283 81.574C72.5772 76.883 74.0202 72.4297 75.9493 68.2189C77.8795 64.0093 80.312 60.1349 83.2468 56.5969C86.1828 53.0612 89.6895 50.1136 93.7669 47.76ZM102.492 98.4706C102.709 91.231 102.709 84.2002 102.492 77.3771C102.383 75.3494 102.179 73.541 101.881 71.9541C101.582 70.3696 101.105 69.1179 100.453 68.1946C99.8 67.2758 98.9289 66.7504 97.8431 66.6251C96.755 66.4986 95.3967 66.9081 93.7657 67.8489C92.1359 68.792 90.7764 69.952 89.6883 71.3335C88.6014 72.7151 87.7302 74.244 87.0783 75.9155C86.4264 77.5917 85.938 79.4002 85.6098 81.3466C85.2838 83.2931 85.0924 85.3301 85.039 87.4517C84.7664 94.5567 84.7664 101.59 85.039 108.545C85.0924 110.608 85.2699 112.429 85.5692 114.015C85.8661 115.599 86.3556 116.846 87.0377 117.749C87.7175 118.655 88.6002 119.171 89.6883 119.295C90.7764 119.421 92.1348 119.013 93.7657 118.071C95.3967 117.13 96.755 115.968 97.8431 114.586C98.9289 113.207 99.814 111.671 100.494 109.98C101.173 108.291 101.662 106.48 101.962 104.551C102.26 102.622 102.437 100.595 102.492 98.4706Z" fill="url(#paint3_linear_35_62825)"/>
<path d="M180.152 51.7453C180.064 51.6618 179.973 51.5922 179.878 51.5389C179.504 51.3301 171.589 46.7562 171.589 46.7562V7.47278C171.589 6.55406 171.372 5.88473 170.937 5.46365C170.853 5.38245 170.766 5.31517 170.674 5.26297C170.297 5.04605 161.905 0.200735 161.819 0.149695C161.438 -0.0765054 161.004 -0.0498258 160.517 0.230894L148.204 7.34053C147.497 7.75001 146.939 8.21866 146.531 8.7453C146.125 9.27426 145.676 10.1396 145.187 11.3425L120.803 72.7553C120.097 74.5869 119.743 76.589 119.743 78.7664V92.0751C119.743 92.9961 119.959 93.6654 120.395 94.0842C120.484 94.17 120.576 94.2396 120.671 94.293C121.044 94.5029 129.437 99.3541 129.528 99.4063C129.904 99.6243 130.332 99.5942 130.814 99.3158L147.634 89.6042V92.169C147.634 93.09 147.851 93.7605 148.286 94.1781C148.371 94.2605 148.459 94.3278 148.549 94.38C148.925 94.5969 157.326 99.4457 157.415 99.499C157.791 99.7194 158.222 99.6893 158.705 99.4097L169.388 93.2408C169.985 92.8975 170.501 92.2641 170.937 91.3431C171.371 90.422 171.589 89.5033 171.589 88.58V75.7759L178.603 71.7263C179.2 71.3807 179.717 70.7496 180.152 69.8263C180.586 68.9075 180.804 67.9853 180.804 67.0643V53.7568C180.803 52.8357 180.586 52.1676 180.152 51.7453Z" fill="url(#paint4_linear_35_62825)"/>
<path opacity="0.15" d="M155.341 13.8566L155.297 14.0097C154.914 14.5444 154.5 15.3634 154.052 16.4666L129.673 77.8793C129.356 78.6878 129.116 79.5276 128.952 80.4011L120.021 75.2484C120.197 74.3854 120.425 73.556 120.731 72.759L145.111 11.3463C145.603 10.1457 146.051 9.27225 146.465 8.74793C146.465 8.74793 146.465 8.73633 146.476 8.73633L155.341 13.8566Z" fill="black"/>
<path opacity="0.3" d="M129.422 99.3423C128.417 98.7635 121.026 94.4947 120.666 94.2987C120.579 94.2441 120.481 94.1676 120.394 94.0806C119.956 93.6653 119.738 92.9995 119.738 92.0715V78.7732C119.738 77.5506 119.869 76.3929 120.087 75.2793L128.952 80.3995C128.722 81.5027 128.613 82.6708 128.613 83.8935V97.2021C128.613 98.1197 128.832 98.7855 129.257 99.1997C129.313 99.2553 129.367 99.2983 129.422 99.3423Z" fill="black"/>
<path opacity="0.3" d="M156.913 41.0645V64.167L149.445 59.8541L156.913 41.0645Z" fill="black"/>
<path opacity="0.4" d="M156.913 64.1664L145.001 71.0336L149.445 59.8535L156.913 64.1664Z" fill="black"/>
<path opacity="0.3" d="M157.153 99.2999C157.207 99.344 157.252 99.3869 157.306 99.431C156.313 98.8637 148.9 94.5833 148.55 94.3873C148.452 94.3328 148.365 94.2667 148.288 94.1797C147.851 93.7644 147.633 93.0881 147.633 92.1705V89.6046L156.499 84.4844V97.2908C156.499 98.2083 156.717 98.8858 157.153 99.2999Z" fill="black"/>
<path opacity="0.15" d="M179.775 51.4907C179.426 51.3375 179.033 51.3816 178.607 51.6322L171.587 55.6829V46.7637C171.587 46.7637 178.803 50.9223 179.775 51.4907Z" fill="black"/>
<path opacity="0.4" d="M170.617 5.23189C170.256 5.04629 169.842 5.09037 169.382 5.35253L157.078 12.4598C156.368 12.8751 155.823 13.3333 155.408 13.8576L146.542 8.73741C146.946 8.21309 147.502 7.75489 148.202 7.33961L160.518 0.232288C161.01 -0.0519125 161.435 -0.0727924 161.817 0.155728C161.905 0.199808 169.787 4.75165 170.617 5.23189Z" fill="white"/>
<path d="M158.707 99.4125C158.107 99.7582 157.591 99.721 157.157 99.3011C156.722 98.8835 156.505 98.2142 156.505 97.292V84.4844L130.816 99.3174C130.217 99.663 129.702 99.6271 129.266 99.206C128.83 98.7884 128.614 98.1191 128.614 97.1969V83.8905C128.614 81.7132 128.967 79.711 129.674 77.8794L154.059 16.4667C154.548 15.2638 154.997 14.3984 155.403 13.8694C155.812 13.3428 156.37 12.8742 157.076 12.4635L169.389 5.35388C169.987 5.01052 170.503 5.04648 170.939 5.46524C171.373 5.88516 171.591 6.55448 171.591 7.47436V55.6874L178.604 51.6379C179.202 51.2922 179.719 51.3305 180.154 51.7469C180.588 52.1692 180.806 52.8362 180.806 53.7572V67.0659C180.806 67.9869 180.589 68.908 180.154 69.8278C179.718 70.7512 179.201 71.3822 178.604 71.7279L171.591 75.7775V88.5827C171.591 89.5061 171.374 90.4248 170.939 91.3458C170.503 92.2669 169.986 92.9002 169.389 93.2436L158.707 99.4125ZM156.912 64.1624V41.0622L145.006 71.0366L156.912 64.1624Z" fill="url(#paint5_linear_35_62825)"/>
<path d="M65.8744 185.686C66.0473 185.587 66.1934 185.597 66.3187 185.715C66.4428 185.835 66.5043 186.027 66.5043 186.292V190.099C66.5043 190.364 66.4428 190.627 66.3187 190.891C66.1934 191.153 66.0461 191.334 65.8744 191.433L54.8127 197.821C54.641 197.92 54.4937 197.909 54.3696 197.789C54.2443 197.67 54.1816 197.479 54.1816 197.214V174.003C54.1816 173.738 54.2431 173.476 54.3696 173.211C54.4937 172.947 54.641 172.767 54.8127 172.669L65.6877 166.389C65.8594 166.29 66.0055 166.302 66.1308 166.421C66.2561 166.541 66.3187 166.733 66.3187 166.995V170.805C66.3187 171.068 66.2561 171.331 66.1308 171.594C66.0055 171.858 65.8582 172.038 65.6877 172.138L58.4992 176.287V180.168L65.1738 176.314C65.3443 176.215 65.4916 176.225 65.6169 176.346C65.7422 176.466 65.8048 176.658 65.8048 176.92V180.73C65.8048 180.994 65.7422 181.256 65.6169 181.52C65.4916 181.784 65.3443 181.964 65.1738 182.064L58.4992 185.917V189.942L65.8744 185.686Z" fill="#0E121B"/>
<path d="M76.7237 160.019C77.7503 159.427 78.6691 159.062 79.4787 158.931C80.2873 158.8 80.9751 158.907 81.5435 159.249C82.1119 159.591 82.5469 160.198 82.8497 161.062C83.1525 161.93 83.3056 163.058 83.3056 164.449C83.3056 166.244 83.0631 167.875 82.5817 169.34C82.0992 170.803 81.4148 172.104 80.5274 173.239L83.4204 180.12C83.468 180.236 83.4912 180.354 83.4912 180.474C83.4912 180.689 83.4413 180.905 83.3404 181.12C83.2383 181.332 83.1177 181.48 82.9785 181.562L79.8059 183.394C79.4938 183.573 79.2723 183.594 79.14 183.454C79.0066 183.317 78.9011 183.16 78.8245 182.991L76.2342 176.796L74.0871 178.035V185.725C74.0871 185.988 74.0233 186.253 73.9015 186.516C73.7762 186.778 73.6277 186.96 73.4572 187.059L70.4006 188.823C70.2277 188.923 70.0816 188.913 69.9575 188.793C69.8322 188.674 69.7695 188.481 69.7695 188.217V165.005C69.7695 164.744 69.831 164.479 69.9575 164.215C70.0816 163.952 70.2277 163.771 70.4006 163.671L76.7237 160.019ZM74.0882 172.428L76.7249 170.906C77.378 170.529 77.9197 170.025 78.3477 169.396C78.7746 168.765 78.9892 167.946 78.9892 166.941C78.9892 165.933 78.7746 165.362 78.3477 165.228C77.9197 165.09 77.378 165.211 76.7249 165.588L74.0882 167.11V172.428Z" fill="#0E121B"/>
<path d="M93.5294 150.315C94.556 149.722 95.4736 149.361 96.2832 149.228C97.0929 149.097 97.7808 149.203 98.348 149.545C98.9164 149.887 99.3514 150.494 99.6542 151.359C99.9569 152.227 100.11 153.356 100.11 154.744C100.11 156.54 99.8688 158.172 99.3862 159.635C98.9037 161.097 98.2193 162.399 97.333 163.533L100.226 170.415C100.272 170.532 100.297 170.649 100.297 170.768C100.297 170.984 100.246 171.199 100.145 171.413C100.044 171.626 99.9222 171.774 99.783 171.855L96.6104 173.687C96.2995 173.868 96.0768 173.886 95.9445 173.747C95.8123 173.608 95.7079 173.454 95.629 173.282L93.0387 167.088L90.8927 168.327V176.016C90.8927 176.281 90.8289 176.544 90.706 176.808C90.5807 177.072 90.4322 177.253 90.2628 177.35L87.2051 179.117C87.0334 179.215 86.8872 179.205 86.762 179.086C86.6367 178.967 86.5752 178.775 86.5752 178.51V155.299C86.5752 155.036 86.6367 154.772 86.762 154.507C86.8872 154.243 87.0346 154.063 87.2051 153.965L93.5294 150.315ZM90.8927 162.725L93.5294 161.203C94.1825 160.826 94.7242 160.323 95.1511 159.691C95.578 159.06 95.7937 158.241 95.7937 157.237C95.7937 156.231 95.578 155.659 95.1511 155.524C94.7242 155.387 94.1825 155.507 93.5294 155.884L90.8927 157.406V162.725Z" fill="#0E121B"/>
<path d="M102.839 154.318C102.887 152.95 103.076 151.577 103.411 150.198C103.745 148.818 104.221 147.516 104.835 146.287C105.451 145.058 106.196 143.931 107.076 142.911C107.954 141.886 108.97 141.043 110.12 140.378C111.256 139.724 112.268 139.396 113.155 139.4C114.041 139.403 114.792 139.665 115.406 140.185C116.022 140.704 116.494 141.459 116.83 142.452C117.164 143.445 117.356 144.6 117.401 145.913C117.433 146.925 117.448 147.994 117.448 149.12C117.448 150.246 117.433 151.309 117.401 152.309C117.354 153.678 117.164 155.049 116.83 156.43C116.495 157.808 116.022 159.118 115.406 160.36C114.791 161.603 114.041 162.728 113.155 163.744C112.269 164.759 111.257 165.596 110.12 166.25C108.969 166.916 107.954 167.25 107.076 167.254C106.196 167.257 105.449 166.996 104.835 166.463C104.222 165.931 103.745 165.169 103.411 164.177C103.076 163.183 102.886 162.031 102.839 160.717C102.808 159.753 102.793 158.707 102.793 157.581C102.793 156.455 102.808 155.368 102.839 154.318ZM113.086 154.618C113.101 154.179 113.116 153.692 113.133 153.155C113.148 152.62 113.156 152.076 113.156 151.525C113.156 150.974 113.148 150.446 113.133 149.939C113.116 149.433 113.101 148.982 113.086 148.583C113.054 148.002 112.972 147.498 112.841 147.073C112.707 146.646 112.522 146.318 112.281 146.084C112.039 145.852 111.74 145.733 111.382 145.724C111.024 145.715 110.604 145.85 110.121 146.127C109.64 146.406 109.219 146.756 108.861 147.178C108.502 147.602 108.203 148.067 107.962 148.576C107.721 149.088 107.534 149.633 107.403 150.212C107.269 150.79 107.187 151.389 107.158 152.006C107.126 152.432 107.107 152.904 107.099 153.424C107.091 153.943 107.088 154.477 107.088 155.029C107.088 155.579 107.091 156.117 107.099 156.638C107.107 157.164 107.126 157.63 107.158 158.042C107.221 159.205 107.487 160.044 107.962 160.561C108.438 161.077 109.156 161.056 110.12 160.5C111.086 159.943 111.8 159.136 112.268 158.075C112.735 157.013 113.007 155.864 113.086 154.618Z" fill="#0E121B"/>
<path d="M127.672 130.605C128.698 130.012 129.617 129.648 130.427 129.517C131.235 129.386 131.923 129.493 132.492 129.835C133.059 130.177 133.494 130.784 133.797 131.648C134.102 132.516 134.252 133.644 134.252 135.035C134.252 136.83 134.011 138.461 133.529 139.926C133.047 141.389 132.362 142.69 131.475 143.825L134.368 150.706C134.415 150.822 134.439 150.94 134.439 151.058C134.439 151.274 134.389 151.49 134.287 151.706C134.186 151.918 134.067 152.066 133.927 152.148L130.753 153.979C130.442 154.159 130.219 154.179 130.089 154.038C129.956 153.901 129.851 153.745 129.774 153.576L127.182 147.381L125.036 148.62V156.31C125.036 156.574 124.972 156.837 124.848 157.101C124.724 157.364 124.577 157.545 124.405 157.644L121.347 159.408C121.176 159.508 121.03 159.497 120.904 159.379C120.779 159.258 120.719 159.067 120.719 158.802V135.591C120.719 135.33 120.779 135.065 120.904 134.801C121.03 134.536 121.177 134.357 121.347 134.257L127.672 130.605ZM125.036 143.014L127.673 141.492C128.326 141.115 128.868 140.611 129.296 139.981C129.723 139.35 129.937 138.531 129.937 137.527C129.937 136.519 129.723 135.948 129.296 135.814C128.868 135.677 128.326 135.797 127.673 136.174L125.036 137.697V143.014Z" fill="#0E121B"/>
<path d="M23.7905 228.16C25.2324 227.327 26.3541 227.203 27.1533 227.787C27.9503 228.372 28.3505 229.674 28.3505 231.694C28.3505 233.713 27.9503 235.486 27.1533 237.012C26.3541 238.538 25.2324 239.717 23.7905 240.55L20.9276 242.203V248.343C20.9276 248.544 20.8801 248.746 20.785 248.947C20.691 249.15 20.5773 249.288 20.4451 249.363L18.9962 250.2C18.864 250.276 18.7515 250.268 18.6552 250.175C18.5601 250.085 18.5137 249.938 18.5137 249.735V231.948C18.5137 231.747 18.5601 231.546 18.6552 231.342C18.7515 231.14 18.864 231.001 18.9962 230.925L23.7905 228.16ZM20.9276 238.759L23.7 237.158C24.3798 236.766 24.9238 236.247 25.3275 235.6C25.7335 234.954 25.9353 234.115 25.9353 233.086C25.9353 232.06 25.7335 231.465 25.3275 231.305C24.9238 231.145 24.381 231.259 23.7 231.654L20.9276 233.255V238.759Z" fill="white"/>
<path d="M35.8782 221.178C36.0685 221.069 36.2112 221.063 36.3063 221.164C36.4026 221.264 36.4861 221.45 36.5568 221.722L40.9382 236.593C40.9498 236.642 40.9556 236.703 40.9556 236.776C40.9556 236.978 40.908 237.18 40.814 237.379C40.7189 237.585 40.6052 237.722 40.4742 237.797L39.1866 238.541C38.9464 238.677 38.7794 238.697 38.6854 238.595C38.5903 238.495 38.5254 238.382 38.4882 238.255L37.7192 235.642L32.0676 238.905L31.2986 242.406C31.2626 242.574 31.1976 242.763 31.1014 242.973C31.0062 243.185 30.8392 243.359 30.6002 243.497L29.3126 244.241C29.1816 244.316 29.069 244.309 28.9728 244.215C28.8776 244.126 28.8301 243.979 28.8301 243.776C28.8301 243.703 28.8359 243.635 28.8486 243.573L33.23 223.642C33.3019 223.289 33.3842 223.006 33.4805 222.796C33.5756 222.585 33.7172 222.424 33.9086 222.313L35.8782 221.178ZM36.8619 232.696L34.8946 225.985L32.926 234.968L36.8619 232.696Z" fill="white"/>
<path d="M42.3367 224.583C42.3611 223.469 42.4922 222.388 42.7311 221.341C42.9689 220.296 43.3146 219.317 43.7682 218.401C44.2206 217.491 44.7785 216.664 45.4397 215.922C46.1009 215.181 46.8723 214.556 47.7551 214.047C48.7921 213.448 49.6482 213.163 50.321 213.185C50.995 213.21 51.5309 213.396 51.9299 213.744C52.3301 214.09 52.6109 214.527 52.7721 215.047C52.9322 215.57 53.025 216.035 53.0493 216.442C53.0609 216.658 53.0157 216.862 52.9148 217.058C52.8139 217.253 52.6967 217.391 52.5656 217.466L51.1168 218.302C50.9845 218.378 50.8813 218.387 50.8047 218.331C50.727 218.275 50.6702 218.202 50.6342 218.112C50.611 218.053 50.5484 217.929 50.4463 217.739C50.3442 217.549 50.1841 217.384 49.9626 217.247C49.7433 217.107 49.4533 217.037 49.0961 217.031C48.7376 217.027 48.2899 217.18 47.7539 217.49C46.8607 218.003 46.145 218.79 45.6079 219.843C45.072 220.896 44.7855 222.056 44.7495 223.327C44.7252 224.039 44.7136 224.794 44.7136 225.591C44.7136 226.389 44.7252 227.133 44.7495 227.814C44.7855 229.317 45.072 230.258 45.6079 230.636C46.145 231.015 46.8607 230.947 47.7539 230.429C48.1947 230.176 48.6007 229.867 48.9708 229.506C49.3397 229.146 49.6587 228.723 49.9278 228.238C50.1957 227.752 50.4045 227.196 50.553 226.569C50.7027 225.941 50.7781 225.233 50.7781 224.443V224.222L48.5949 225.482C48.4627 225.557 48.3502 225.55 48.2539 225.459C48.1576 225.367 48.1124 225.221 48.1124 225.018V223.062C48.1124 222.861 48.1576 222.66 48.2539 222.457C48.349 222.255 48.4627 222.116 48.5949 222.04L52.7083 219.667C52.8405 219.59 52.9531 219.597 53.0493 219.689C53.1433 219.782 53.192 219.929 53.192 220.131V223.16C53.192 224.262 53.0783 225.34 52.8521 226.398C52.6259 227.456 52.2849 228.452 51.8325 229.382C51.3801 230.314 50.8129 231.164 50.1343 231.932C49.4545 232.702 48.6622 233.346 47.7551 233.869C46.848 234.393 46.0615 234.663 45.3945 234.683C44.7263 234.702 44.1719 234.508 43.7311 234.101C43.2903 233.694 42.9527 233.096 42.7207 232.303C42.4887 231.509 42.3599 230.569 42.3356 229.483C42.3251 229.141 42.3159 228.761 42.3089 228.34C42.3031 227.923 42.3008 227.493 42.3008 227.053C42.3008 226.611 42.3031 226.178 42.3089 225.753C42.3159 225.331 42.3263 224.939 42.3367 224.583Z" fill="white"/>
<path d="M64.2241 220.645C64.3551 220.57 64.4677 220.579 64.5639 220.671C64.6602 220.763 64.7078 220.909 64.7078 221.112V223.065C64.7078 223.267 64.6591 223.471 64.5639 223.672C64.4688 223.875 64.3551 224.014 64.2241 224.089L56.3743 228.622C56.2421 228.697 56.1296 228.69 56.0333 228.597C55.9382 228.507 55.8906 228.359 55.8906 228.156V210.37C55.8906 210.168 55.9382 209.968 56.0333 209.763C56.1284 209.562 56.2421 209.424 56.3743 209.347L64.0814 204.897C64.2136 204.822 64.3261 204.829 64.4224 204.92C64.5164 205.013 64.5639 205.161 64.5639 205.362V207.317C64.5639 207.519 64.5175 207.721 64.4224 207.923C64.3273 208.124 64.2136 208.264 64.0814 208.34L58.3046 211.675V216.053L63.6881 212.944C63.8192 212.869 63.9317 212.878 64.028 212.97C64.1231 213.061 64.1719 213.207 64.1719 213.41V215.364C64.1719 215.569 64.1231 215.77 64.028 215.972C63.9329 216.174 63.8192 216.313 63.6881 216.388L58.3046 219.495V224.066L64.2241 220.645Z" fill="white"/>
<path d="M80.0155 214.97C79.8125 215.087 79.6571 215.094 79.5503 214.991C79.4436 214.888 79.3659 214.804 79.3172 214.74L74.3095 206.176V217.521C74.3095 217.723 74.2631 217.926 74.1668 218.125C74.0728 218.328 73.9591 218.468 73.8269 218.543L72.3792 219.378C72.247 219.455 72.1345 219.448 72.0382 219.354C71.9419 219.264 71.8955 219.117 71.8955 218.914V201.127C71.8955 200.925 71.9419 200.725 72.0382 200.52C72.1333 200.318 72.247 200.18 72.3792 200.105L73.6309 199.381C73.8327 199.264 73.9882 199.257 74.096 199.361C74.2039 199.463 74.2805 199.549 74.328 199.612L79.3369 208.175V196.832C79.3369 196.631 79.3845 196.43 79.4796 196.226C79.5759 196.024 79.6884 195.886 79.8195 195.81L81.2672 194.973C81.3982 194.898 81.5108 194.906 81.607 194.997C81.7022 195.09 81.7509 195.237 81.7509 195.439V213.224C81.7509 213.426 81.7022 213.63 81.607 213.831C81.5119 214.034 81.3982 214.173 81.2672 214.249L80.0155 214.97Z" fill="white"/>
<path d="M84.5602 200.26C84.595 199.211 84.7249 198.171 84.9442 197.135C85.1646 196.099 85.4917 195.122 85.9197 194.203C86.3489 193.285 86.886 192.444 87.5298 191.677C88.1736 190.91 88.9357 190.272 89.8196 189.763C90.6885 189.261 91.446 189.017 92.0898 189.03C92.7336 189.044 93.2695 189.266 93.6998 189.698C94.129 190.129 94.4573 190.729 94.6835 191.498C94.9097 192.267 95.042 193.164 95.0768 194.191C95.0895 194.533 95.0976 194.912 95.1034 195.331C95.1092 195.75 95.1127 196.184 95.1127 196.634C95.1127 197.084 95.1081 197.52 95.1034 197.946C95.0965 198.371 95.0884 198.762 95.0768 199.117C95.042 200.166 94.9143 201.207 94.6928 202.243C94.4701 203.28 94.1476 204.257 93.7172 205.175C93.288 206.092 92.7486 206.932 92.099 207.693C91.4483 208.453 90.6885 209.085 89.8196 209.587C88.9357 210.097 88.1736 210.345 87.5298 210.331C86.886 210.317 86.3501 210.099 85.9197 209.677C85.4917 209.257 85.1657 208.655 84.9442 207.872C84.7249 207.092 84.595 206.197 84.5602 205.19C84.5486 204.849 84.5405 204.468 84.5335 204.049C84.5277 203.631 84.5254 203.198 84.5254 202.748C84.5254 202.298 84.5277 201.858 84.5335 201.432C84.5405 201.006 84.5486 200.615 84.5602 200.26ZM92.6628 195.721C92.6152 194.426 92.3368 193.564 91.8311 193.13C91.3241 192.697 90.6537 192.722 89.8196 193.203C88.9833 193.686 88.3139 194.437 87.807 195.454C87.3001 196.471 87.0229 197.654 86.9742 199.003C86.951 199.715 86.9394 200.496 86.9394 201.35C86.9394 202.204 86.951 202.972 86.9742 203.656C87.0229 204.951 87.3001 205.809 87.807 206.231C88.3139 206.656 88.9833 206.628 89.8196 206.146C90.6537 205.663 91.3241 204.917 91.8311 203.909C92.3368 202.901 92.6152 201.721 92.6628 200.372C92.686 199.661 92.6976 198.878 92.6976 198.026C92.6976 197.173 92.6848 196.405 92.6628 195.721Z" fill="white"/>
<path d="M105.965 180.715C106.096 180.64 106.208 180.648 106.304 180.739C106.4 180.831 106.448 180.977 106.448 181.18V183.135C106.448 183.337 106.4 183.539 106.304 183.742C106.209 183.943 106.096 184.083 105.965 184.158L102.747 186.016V201.104C102.747 201.306 102.698 201.51 102.603 201.711C102.508 201.914 102.394 202.053 102.263 202.129L100.814 202.964C100.683 203.039 100.571 203.032 100.474 202.94C100.379 202.849 100.33 202.703 100.33 202.5V187.412L97.1126 189.269C96.9816 189.344 96.869 189.335 96.7728 189.243C96.6765 189.152 96.6289 189.007 96.6289 188.804V186.849C96.6289 186.647 96.6776 186.447 96.7728 186.241C96.8679 186.04 96.9816 185.901 97.1126 185.826L105.965 180.715Z" fill="white"/>
<path d="M120.881 172.104C121.012 172.029 121.125 172.036 121.221 172.127C121.316 172.22 121.365 172.366 121.365 172.568V174.524C121.365 174.726 121.316 174.927 121.221 175.13C121.125 175.331 121.012 175.471 120.881 175.546L115.176 178.842V184.182L120.523 181.095C120.655 181.019 120.768 181.027 120.864 181.119C120.96 181.213 121.007 181.359 121.007 181.561V183.515C121.007 183.717 120.959 183.918 120.864 184.12C120.769 184.321 120.655 184.462 120.523 184.537L115.176 187.625V193.93C115.176 194.132 115.129 194.333 115.034 194.535C114.94 194.738 114.826 194.876 114.694 194.952L113.246 195.788C113.114 195.865 113 195.856 112.905 195.764C112.81 195.673 112.764 195.526 112.764 195.323V177.537C112.764 177.335 112.809 177.134 112.905 176.931C113 176.729 113.114 176.59 113.246 176.515L120.881 172.104Z" fill="white"/>
<path d="M123.312 177.885C123.347 176.838 123.476 175.796 123.696 174.759C123.917 173.725 124.241 172.747 124.672 171.828C125.101 170.913 125.638 170.068 126.281 169.304C126.925 168.537 127.688 167.899 128.571 167.389C129.439 166.887 130.197 166.643 130.841 166.659C131.486 166.673 132.022 166.893 132.452 167.325C132.88 167.756 133.209 168.357 133.436 169.126C133.662 169.895 133.794 170.792 133.829 171.816C133.839 172.159 133.849 172.539 133.854 172.959C133.861 173.377 133.864 173.812 133.864 174.262C133.864 174.712 133.861 175.149 133.854 175.574C133.849 176 133.839 176.391 133.829 176.747C133.794 177.796 133.664 178.838 133.445 179.873C133.222 180.91 132.899 181.886 132.469 182.804C132.04 183.721 131.501 184.561 130.85 185.32C130.2 186.081 129.439 186.713 128.571 187.214C127.688 187.725 126.925 187.973 126.281 187.959C125.638 187.944 125.102 187.726 124.672 187.306C124.241 186.882 123.918 186.282 123.696 185.501C123.476 184.719 123.347 183.825 123.312 182.818C123.298 182.476 123.29 182.095 123.286 181.675C123.28 181.258 123.276 180.824 123.276 180.374C123.276 179.924 123.28 179.486 123.286 179.062C123.291 178.632 123.298 178.243 123.312 177.885ZM131.414 173.348C131.365 172.052 131.088 171.189 130.581 170.758C130.075 170.325 129.403 170.349 128.569 170.831C127.734 171.314 127.064 172.062 126.557 173.081C126.05 174.098 125.773 175.281 125.725 176.631C125.701 177.343 125.69 178.124 125.69 178.978C125.69 179.83 125.701 180.6 125.725 181.284C125.773 182.578 126.05 183.436 126.557 183.858C127.064 184.283 127.734 184.253 128.569 183.771C129.403 183.29 130.074 182.545 130.581 181.535C131.088 180.527 131.365 179.349 131.414 178C131.437 177.289 131.449 176.506 131.449 175.654C131.449 174.8 131.437 174.032 131.414 173.348Z" fill="white"/>
<path d="M146.311 157.42C146.442 157.345 146.555 157.353 146.651 157.445C146.746 157.537 146.795 157.685 146.795 157.887V169.176C146.795 170.312 146.687 171.404 146.471 172.443C146.257 173.486 145.935 174.462 145.505 175.37C145.077 176.278 144.539 177.097 143.895 177.827C143.251 178.557 142.508 179.166 141.66 179.654C140.801 180.149 140.053 180.404 139.415 180.414C138.778 180.424 138.243 180.222 137.814 179.811C137.385 179.399 137.065 178.792 136.856 177.995C136.647 177.199 136.544 176.231 136.544 175.093V163.804C136.544 163.602 136.593 163.4 136.688 163.196C136.782 162.995 136.895 162.856 137.028 162.779L138.475 161.944C138.606 161.869 138.719 161.876 138.815 161.967C138.91 162.06 138.958 162.208 138.958 162.409V173.559C138.958 174.312 139.024 174.918 139.156 175.372C139.286 175.831 139.472 176.159 139.71 176.361C139.949 176.563 140.235 176.645 140.568 176.609C140.902 176.573 141.265 176.441 141.66 176.212C142.053 175.986 142.421 175.695 142.76 175.343C143.1 174.992 143.388 174.577 143.627 174.1C143.867 173.622 144.054 173.076 144.19 172.465C144.329 171.854 144.396 171.172 144.396 170.419V159.269C144.396 159.067 144.444 158.867 144.539 158.661C144.634 158.46 144.747 158.322 144.879 158.246L146.311 157.42Z" fill="white"/>
<path d="M158.061 169.91C157.858 170.027 157.703 170.034 157.596 169.93C157.488 169.826 157.411 169.742 157.363 169.679L152.355 161.115V172.46C152.355 172.662 152.307 172.865 152.212 173.064C152.118 173.267 152.004 173.406 151.872 173.482L150.425 174.317C150.293 174.393 150.18 174.388 150.084 174.292C149.989 174.203 149.941 174.056 149.941 173.853V156.065C149.941 155.864 149.989 155.664 150.084 155.459C150.179 155.257 150.293 155.119 150.425 155.043L151.677 154.32C151.879 154.202 152.034 154.195 152.142 154.299C152.249 154.401 152.325 154.485 152.374 154.549L157.383 163.111V151.769C157.383 151.567 157.429 151.366 157.524 151.163C157.621 150.961 157.733 150.823 157.864 150.748L159.314 149.91C159.445 149.835 159.558 149.843 159.654 149.935C159.749 150.028 159.797 150.175 159.797 150.377V168.162C159.797 168.364 159.749 168.568 159.654 168.769C159.558 168.972 159.445 169.111 159.314 169.186L158.061 169.91Z" fill="white"/>
<path d="M167.931 144.938C168.814 144.429 169.579 144.167 170.229 144.149C170.879 144.133 171.42 144.328 171.857 144.737C172.29 145.147 172.626 145.753 172.858 146.555C173.091 147.358 173.231 148.323 173.278 149.452C173.326 150.783 173.326 152.141 173.278 153.527C173.23 154.711 173.091 155.838 172.858 156.908C172.626 157.979 172.295 158.968 171.865 159.876C171.437 160.786 170.903 161.603 170.264 162.328C169.626 163.055 168.878 163.666 168.019 164.163L163.514 166.764C163.383 166.84 163.27 166.833 163.174 166.739C163.076 166.65 163.031 166.503 163.031 166.3V148.512C163.031 148.31 163.076 148.111 163.174 147.905C163.269 147.704 163.383 147.566 163.514 147.49L167.931 144.938ZM170.865 150.844C170.84 150.272 170.766 149.768 170.641 149.335C170.516 148.902 170.331 148.569 170.088 148.334C169.843 148.099 169.535 147.982 169.166 147.984C168.798 147.985 168.356 148.135 167.842 148.432L165.446 149.816V162.206L167.931 160.77C168.421 160.488 168.843 160.139 169.2 159.721C169.559 159.304 169.856 158.843 170.096 158.336C170.332 157.833 170.514 157.286 170.64 156.701C170.765 156.115 170.839 155.521 170.864 154.92C170.912 153.534 170.912 152.174 170.865 150.844Z" fill="white"/>
<defs>
<linearGradient id="paint0_linear_35_62825" x1="0.00390625" y1="118.955" x2="61.0651" y2="118.955" gradientUnits="userSpaceOnUse">
<stop stop-color="#EC1577"/>
<stop offset="1" stop-color="#F1622A"/>
</linearGradient>
<linearGradient id="paint1_linear_35_62825" x1="8.87402" y1="121.513" x2="61.0647" y2="121.513" gradientUnits="userSpaceOnUse">
<stop stop-color="#EC1577"/>
<stop offset="1" stop-color="#F1622A"/>
</linearGradient>
<linearGradient id="paint2_linear_35_62825" x1="60.9219" y1="90.3996" x2="117.742" y2="90.3996" gradientUnits="userSpaceOnUse">
<stop stop-color="#EC1577"/>
<stop offset="1" stop-color="#F1622A"/>
</linearGradient>
<linearGradient id="paint3_linear_35_62825" x1="69.792" y1="92.9606" x2="117.742" y2="92.9606" gradientUnits="userSpaceOnUse">
<stop stop-color="#EC1577"/>
<stop offset="1" stop-color="#F1622A"/>
</linearGradient>
<linearGradient id="paint4_linear_35_62825" x1="119.743" y1="49.8213" x2="180.804" y2="49.8213" gradientUnits="userSpaceOnUse">
<stop stop-color="#EC1577"/>
<stop offset="1" stop-color="#F1622A"/>
</linearGradient>
<linearGradient id="paint5_linear_35_62825" x1="128.614" y1="52.3838" x2="180.806" y2="52.3838" gradientUnits="userSpaceOnUse">
<stop stop-color="#EC1577"/>
<stop offset="1" stop-color="#F1622A"/>
</linearGradient>
</defs>
</svg>
