<svg width="187" height="111" viewBox="0 0 187 111" fill="none" xmlns="http://www.w3.org/2000/svg">
<path d="M186.928 70.6967V65.167C186.928 64.5267 186.41 63.9757 185.771 63.9351L176.966 63.3771L176.963 51.0057L176.957 51.0092C176.974 50.7586 176.835 50.5092 176.531 50.3341L167.244 44.9726C166.689 44.6524 165.769 44.6118 165.188 44.8809L155.775 49.2413C155.194 49.5105 154.232 49.5604 153.621 49.3701C151.276 48.637 148.825 48.0593 146.314 47.6336C145.683 47.5269 145.073 46.9411 144.953 46.3124L143.775 40.1087C143.655 39.48 143.039 38.9707 142.4 38.9707H128.746C128.105 38.9707 127.49 39.48 127.371 40.1087L126.194 46.3124C126.074 46.9411 125.464 47.5269 124.833 47.6348C122.32 48.0617 119.869 48.6393 117.525 49.3724C116.914 49.5627 115.953 49.5128 115.372 49.2437L105.958 44.8832C105.378 44.6141 104.457 44.6559 103.903 44.976L94.616 50.3376C94.3167 50.5104 94.1764 50.7528 94.1868 50.9988C94.1857 50.993 94.1822 50.9872 94.181 50.9825L94.1891 63.3806L85.3743 63.9386C84.7351 63.9792 84.2178 64.5302 84.2178 65.1705V72.0748C84.2178 72.0771 84.2189 72.0783 84.2189 72.0806L84.2213 76.9224L84.2201 76.9271V83.8303L84.2213 83.8337V83.8476C84.2236 83.9961 84.3303 84.104 84.3837 84.2374C84.4428 84.3882 84.4544 84.5576 84.5646 84.6747C84.7166 84.8348 84.9381 84.8939 85.1539 84.9566C85.2351 84.9798 85.2885 85.0575 85.3755 85.0633L85.5379 85.0738L94.1845 85.6236V85.6259L94.1799 92.7541V92.7657L94.1775 92.891L94.181 95.0915L94.1833 98.0484C94.1833 98.0611 94.1961 98.0739 94.1973 98.0866C94.2042 98.1701 94.2216 98.2514 94.2692 98.3337C94.2692 98.3337 94.2831 98.3453 94.2877 98.3511C94.3597 98.4683 94.4641 98.5773 94.6172 98.6655L103.904 104.028C103.91 104.03 103.92 104.03 103.926 104.034C104.172 104.174 104.488 104.239 104.815 104.267C104.903 104.275 104.971 104.273 105.059 104.272C105.171 104.272 105.282 104.291 105.39 104.279V104.216C105.586 104.188 105.8 104.194 105.958 104.121L115.373 99.7594C115.954 99.4902 116.916 99.4392 117.527 99.6306C119.873 100.364 122.324 100.943 124.835 101.368C125.466 101.475 126.076 102.061 126.195 102.69L127.372 108.892C127.4 109.038 127.525 109.137 127.599 109.264V109.406C127.648 109.476 127.729 109.516 127.791 109.578C127.851 109.638 127.898 109.685 127.967 109.735C128.2 109.905 128.46 110.03 128.747 110.03H142.401C142.714 110.03 143.02 109.905 143.266 109.706V109.703C143.523 109.496 143.715 109.212 143.776 108.891L144.953 102.687C145.073 102.058 145.683 101.473 146.314 101.365C148.826 100.938 151.277 100.36 153.623 99.6271C154.234 99.4369 155.196 99.4879 155.776 99.7559L165.189 104.117C165.438 104.232 165.751 104.279 166.069 104.283V104.265C166.497 104.272 166.926 104.209 167.245 104.025L176.532 98.6632C176.818 98.4984 176.961 98.2688 176.963 98.0333H176.966L176.964 85.619L185.773 85.0622C186.413 85.0216 186.93 84.4694 186.93 83.8291L186.954 70.9438C186.953 70.8568 186.944 70.7756 186.928 70.6967ZM153.075 76.4863C152.519 76.8981 151.918 77.2971 151.261 77.6764C142.597 82.6783 128.548 82.6783 119.883 77.6764C119.224 77.2959 118.621 76.8946 118.062 76.4816C118.625 76.0884 119.229 75.7021 119.885 75.3228C128.551 70.3197 142.598 70.3197 151.263 75.3228C151.92 75.7021 152.521 76.0919 153.075 76.4863Z" fill="#2B303B"/>
<path d="M186.955 70.9396L186.93 83.8249C186.93 84.4641 186.409 85.0162 185.77 85.0545L176.963 85.6124V98.0256C176.957 98.2634 176.819 98.4896 176.53 98.659L167.241 104.016C166.928 104.204 166.495 104.266 166.068 104.261V104.279C165.748 104.273 165.441 104.229 165.19 104.11L155.774 99.7505C155.53 99.638 155.209 99.5684 154.889 99.5371V99.5313C154.444 99.4814 153.974 99.5127 153.622 99.6195C151.277 100.354 148.824 100.93 146.314 101.357C146.114 101.394 145.919 101.477 145.737 101.595V101.665C145.354 101.922 145.028 102.261 144.953 102.681L143.773 108.884C143.71 109.205 143.522 109.486 143.265 109.693V109.699C143.02 109.899 142.713 110.019 142.399 110.019L128.744 110.025C128.656 110.019 128.575 110.006 128.493 109.988C128.136 109.912 127.81 109.699 127.597 109.398V109.253C127.521 109.128 127.396 109.027 127.371 108.883L126.191 102.68C126.128 102.341 125.915 102.033 125.639 101.789V101.77C125.407 101.562 125.118 101.406 124.83 101.356C122.321 100.929 119.869 100.353 117.522 99.6183C117.127 99.4988 116.581 99.4745 116.086 99.5499V99.587C115.835 99.631 115.565 99.6554 115.37 99.7505L105.955 104.11C105.798 104.185 105.585 104.178 105.384 104.204V104.266H105.378C104.87 104.329 104.299 104.248 103.91 104.022C103.91 104.022 103.904 104.022 103.897 104.016L94.6133 98.659C94.5321 98.6091 94.4694 98.558 94.4126 98.5082C94.3499 98.4455 94.3001 98.3887 94.2618 98.326C94.2119 98.2321 94.1864 98.1439 94.1806 98.05C94.1806 98.05 94.1806 98.0442 94.1806 98.0372L94.1748 95.0827V92.743L94.1806 85.6171L92.5682 85.5103L85.5305 85.0649L85.3739 85.0522C85.3681 85.0522 85.3681 85.0522 85.3681 85.0522C84.7405 85.0081 84.2266 84.4756 84.2139 83.8411V72.0659C84.2139 72.7063 84.7278 73.2573 85.3681 73.2955L97.7441 74.0797C98.3833 74.1238 99.1117 74.6319 99.4191 75.1899C100.097 76.438 100.969 77.6618 102.048 78.8403C102.48 79.3113 102.431 79.976 101.91 80.346L94.5518 85.6403C94.0309 86.0173 94.0565 86.581 94.6144 86.9012L103.898 92.2639C104.45 92.584 105.372 92.6212 105.956 92.352L115.365 87.9928C115.948 87.7236 116.907 87.6726 117.522 87.8675C119.868 88.5948 122.314 89.1783 124.83 89.6051C125.463 89.7119 126.072 90.2954 126.191 90.9229L127.371 97.1266C127.49 97.7542 128.105 98.268 128.744 98.268H142.399C143.04 98.268 143.653 97.753 143.773 97.1266L144.953 90.9229C145.072 90.2954 145.68 89.7119 146.308 89.6051C148.824 89.1783 151.276 88.5948 153.621 87.8617C154.229 87.6738 155.19 87.7236 155.773 87.9928L165.189 92.352C165.765 92.6223 166.688 92.584 167.24 92.2639L176.529 86.9012C177.081 86.581 177.107 86.0173 176.592 85.6461L169.228 80.346C168.714 79.976 168.663 79.3113 169.096 78.8346C170.169 77.6618 171.04 76.438 171.724 75.1899C172.025 74.6319 172.753 74.1238 173.392 74.0797L185.768 73.3014C186.409 73.2573 186.923 72.7051 186.923 72.0659V70.6855C186.942 70.7702 186.955 70.8515 186.955 70.9396Z" fill="#2B303B"/>
<path d="M176.963 51.0059V63.3761L173.394 63.1499C172.755 63.1128 172.026 62.6036 171.726 62.0398C171.041 60.7916 170.17 59.5679 169.097 58.3951C168.665 57.9241 168.709 57.2594 169.229 56.8836L176.593 51.5894C176.819 51.42 176.945 51.2193 176.957 51.0128L176.963 51.0059Z" fill="#2B303B"/>
<path d="M102.049 58.3941C100.97 59.5738 100.098 60.7906 99.4201 62.0388C99.1127 62.6037 98.3854 63.1118 97.7451 63.1489L94.1885 63.3751L94.1758 50.9805C94.1816 51.1939 94.308 51.4132 94.5528 51.5895L101.911 56.8837C102.432 57.2596 102.476 57.9243 102.049 58.3941Z" fill="#2B303B"/>
<path d="M103.902 44.9702L94.6149 50.3317C94.0604 50.6519 94.0325 51.2145 94.5522 51.588L101.912 56.8834C102.432 57.2569 102.481 57.9216 102.048 58.3937C100.973 59.57 100.098 60.7902 99.4207 62.0396C99.1156 62.6022 98.3872 63.1091 97.7492 63.1497L85.3743 63.9327C84.7363 63.9733 84.2178 64.5243 84.2178 65.1646V72.069C84.2178 72.7093 84.7351 73.2603 85.3743 73.3008L97.7503 74.0839C98.3883 74.1245 99.1168 74.6326 99.4219 75.194C100.099 76.4422 100.974 77.6636 102.049 78.8387C102.481 79.3108 102.432 79.9755 101.912 80.349L94.5534 85.6444C94.0337 86.018 94.0627 86.5805 94.616 86.9007L103.903 92.2622C104.457 92.5824 105.377 92.6241 105.958 92.355L115.372 87.9934C115.953 87.7243 116.915 87.6744 117.526 87.8646C119.872 88.5978 122.321 89.1755 124.834 89.6023C125.465 89.7091 126.075 90.2949 126.194 90.9236L127.371 97.1273C127.49 97.756 128.106 98.2652 128.746 98.2652H142.401C143.041 98.2652 143.656 97.756 143.776 97.1273L144.953 90.9236C145.073 90.2949 145.683 89.7091 146.314 89.6023C148.826 89.1755 151.277 88.5978 153.622 87.8635C154.233 87.6733 155.194 87.7231 155.775 87.9923L165.188 92.3527C165.769 92.6218 166.689 92.5801 167.244 92.2611L176.531 86.8995C177.085 86.5794 177.113 86.0168 176.593 85.6433L169.233 80.3479C168.713 79.9743 168.665 79.3097 169.096 78.8364C170.171 77.6601 171.046 76.4398 171.725 75.1917C172.03 74.6291 172.758 74.1221 173.397 74.0815L185.772 73.2985C186.41 73.2579 186.929 72.7069 186.929 72.0666V65.1635C186.929 64.5231 186.411 63.9721 185.772 63.9315L173.397 63.1474C172.758 63.1068 172.031 62.5987 171.725 62.0361C171.046 60.7868 170.171 59.5665 169.096 58.3914C168.665 57.9193 168.713 57.2546 169.233 56.8811L176.593 51.5856C177.113 51.2121 177.085 50.6496 176.531 50.3294L167.244 44.9679C166.689 44.6477 165.769 44.6071 165.188 44.875L155.775 49.2355C155.194 49.5046 154.232 49.5545 153.621 49.3643C151.276 48.6312 148.825 48.0535 146.314 47.6277C145.683 47.521 145.073 46.9352 144.953 46.3065L143.774 40.1028C143.655 39.4741 143.039 38.9648 142.4 38.9648H128.746C128.105 38.9648 127.49 39.4741 127.371 40.1028L126.194 46.3065C126.074 46.9352 125.464 47.521 124.833 47.6289C122.32 48.0558 119.869 48.6335 117.525 49.3666C116.914 49.5568 115.953 49.5069 115.372 49.2378L105.958 44.8774C105.376 44.6083 104.456 44.65 103.902 44.9702ZM151.26 59.5595C159.925 64.5614 159.925 72.6733 151.26 77.6752C142.596 82.6771 128.547 82.6771 119.882 77.6752C111.218 72.6721 111.218 64.5614 119.882 59.5595C128.548 54.5564 142.596 54.5564 151.26 59.5595Z" fill="#525866"/>
<path d="M94.1783 86.2644C94.1794 86.0452 94.3036 85.8225 94.5518 85.6427L98.2557 82.977V74.2062C98.0852 74.1378 97.9112 74.0937 97.7441 74.0821L85.3681 73.298C84.7278 73.2608 84.2139 72.7087 84.2139 72.0684V83.8435C84.2266 84.4769 84.7405 85.0105 85.3681 85.0546C85.3681 85.0546 85.3681 85.0546 85.3739 85.0546L85.5305 85.0673L92.5682 85.5128L94.1806 85.6195C94.1829 85.6195 94.1783 86.5034 94.1783 86.2644Z" fill="#2B303B"/>
<path d="M116.076 87.8066C115.815 87.8461 115.564 87.9029 115.364 87.9957L105.955 92.355C105.618 92.5105 105.172 92.5522 104.746 92.5081V104.267C104.957 104.289 105.172 104.294 105.378 104.268H105.384V104.206C105.585 104.18 105.798 104.187 105.955 104.112L115.371 99.7523C115.563 99.6595 115.828 99.634 116.076 99.5911V87.8066Z" fill="#2B303B"/>
<path d="M127.546 97.5709C127.461 97.4351 127.401 97.2844 127.371 97.1278L126.191 90.9241C126.16 90.7617 126.095 90.6028 126.007 90.4531V102.221C126.096 102.365 126.161 102.518 126.191 102.68L127.371 108.883C127.391 108.998 127.474 109.086 127.546 109.18V97.5709Z" fill="#2B303B"/>
<path opacity="0.15" d="M145.134 90.457C145.047 90.6055 144.983 90.7621 144.953 90.9233L143.773 97.127C143.743 97.286 143.681 97.4367 143.595 97.5748V109.324C143.681 109.19 143.742 109.04 143.773 108.882L144.953 102.679C144.981 102.526 145.049 102.388 145.134 102.255V90.457Z" fill="#0E121B"/>
<path opacity="0.15" d="M166.394 92.5081C165.968 92.5534 165.523 92.5116 165.189 92.355L155.773 87.9957C155.574 87.9029 155.324 87.8461 155.064 87.8066V99.5667C155.322 99.6038 155.574 99.6595 155.773 99.7512L165.189 104.11C165.44 104.23 165.747 104.274 166.067 104.28V104.261C166.177 104.262 166.286 104.26 166.394 104.251V92.5081Z" fill="#0E121B"/>
<path opacity="0.15" d="M185.768 73.3041L173.392 74.0825C173.225 74.0941 173.051 74.1381 172.881 74.2066V82.9785L176.592 85.6488C176.839 85.8275 176.962 86.0502 176.961 86.2694C176.959 86.5061 176.962 85.6129 176.962 85.6129L185.768 85.0549C186.409 85.0178 186.928 84.4656 186.928 83.8253L186.954 70.94C186.954 70.8519 186.941 70.7707 186.923 70.6895V72.0699C186.923 72.7079 186.409 73.26 185.768 73.3041Z" fill="#0E121B"/>
<path d="M0.00928375 30.004C0.00580375 30.5306 0.0208799 40.2491 0.0243599 40.5217C0.0243599 40.6099 0.0533639 40.7004 0.113684 40.7862L4.25024 46.5502C4.49152 46.8948 5.17128 47.0896 5.76172 46.9968L15.2923 45.3879C15.885 45.2893 16.6425 45.4262 17.001 45.6837C17.7306 46.1999 18.5032 46.6906 19.3163 47.1523C19.3163 47.1523 19.3047 54.8883 19.3314 55.0588C19.3639 55.3337 19.5576 55.5565 19.8615 55.6296L30.2377 58.112C30.7261 58.2326 31.4743 57.9531 31.9058 57.4972L36.185 52.9952C36.6166 52.5393 37.3972 52.2053 37.9366 52.2377C40.0757 52.3723 42.26 52.3781 44.4396 52.2493C45.0057 52.2087 45.711 52.4245 46.0079 52.7365L50.7836 57.7616C51.0806 58.0725 51.8021 58.2106 52.4007 58.0633L62.3802 55.6783C62.8743 55.56 63.1864 55.2479 63.1655 54.9278L63.1574 47.136C63.8418 46.7382 64.496 46.331 65.1108 45.9006C65.6548 45.5318 66.4808 45.2824 66.9912 45.3647L76.8245 47.02C77.3256 47.1047 78.0204 46.7788 78.3742 46.2927L82.1373 41.0449C82.2869 40.8372 82.3542 40.6192 82.3507 40.4347C82.3438 40.2549 82.3333 37.1659 82.3333 32.8576C82.3774 32.7811 82.411 32.6975 82.4134 32.6175C82.4134 32.5293 82.3913 18.52 82.389 17.6454C82.3902 17.6314 82.3902 17.6175 82.3913 17.6036C82.3913 17.5154 82.3623 17.425 82.3043 17.3473L78.1678 11.5832C77.923 11.2433 77.2467 11.0438 76.654 11.1424L67.1257 12.7455C66.533 12.8441 65.7755 12.7072 65.4147 12.4555C64.6886 11.9335 63.9148 11.4428 63.1028 10.9812C63.1028 7.37009 63.0947 3.65925 63.0959 3.22657C63.097 3.21265 63.097 3.19755 63.0947 3.18943C63.0947 2.85883 62.8975 2.59088 62.5576 2.50504L52.178 0.0284633C51.6896 -0.0921767 50.9449 0.181582 50.5087 0.643262L46.2318 5.13939C45.7968 5.59991 45.0161 5.93518 44.4767 5.9027C42.3377 5.76814 40.1569 5.75769 37.9726 5.89109C37.41 5.92589 36.7012 5.71475 36.4043 5.40387L31.6286 0.37875C31.3374 0.0713502 30.6101 -0.0701622 30.0208 0.0748378L20.0332 2.46213C19.5472 2.57813 19.2421 2.87858 19.2514 3.19294L19.2432 3.18133L19.2548 11.0044C18.5739 11.3964 17.9162 11.8094 17.3049 12.234C16.762 12.6028 15.9314 12.858 15.4245 12.771L5.58772 11.1215C5.08544 11.0368 4.39176 11.3628 4.03796 11.8488L0.274924 17.0967C0.132244 17.2927 0.0649635 17.4969 0.0661235 17.6732C0.0684435 17.6813 0.0649629 17.6871 0.0672829 17.6964C0.0649629 18.1581 0.0707628 25.5078 0.0754028 29.7453L0.0719203 29.7511C0.0313203 29.823 0.00928188 29.8985 0.00464188 29.9831L0.00116379 29.9889C0.00116379 29.9889 0.00116 29.9889 0 30.0029C0.00348 30.0005 0.00348375 30.0005 0.00928375 30.004ZM54.0386 31.2962C52.4053 32.2324 50.4426 33.0003 48.1852 33.5397C41.1962 35.2078 33.4463 34.1904 28.3794 31.309C27.8203 30.9935 27.296 30.6548 26.8122 30.2871C27.2554 29.9773 27.7437 29.6653 28.2634 29.3637C35.3962 25.2468 46.9498 25.2457 54.0838 29.3648C54.6174 29.6734 55.1116 29.9878 55.5652 30.3079C55.0988 30.6536 54.5838 30.9877 54.0386 31.2962Z" fill="#2B303B"/>
<path d="M60.8106 9.80646C61.6052 10.173 62.3731 10.5674 63.1063 10.9815C63.1063 7.36814 63.0993 3.65961 63.0993 3.22461C63.0923 3.34641 63.0587 3.48909 62.9845 3.62481L60.4986 8.54901C60.2469 9.05128 60.3895 9.60926 60.8106 9.80646Z" fill="#2B303B"/>
<path opacity="0.15" d="M72.2536 22.1268C72.4368 23.2207 72.4299 24.3006 72.2675 25.3806C72.1932 25.8631 72.4716 26.3793 72.9333 26.529L81.9129 29.3675C82.1843 29.4557 82.334 29.6738 82.334 29.9382C82.327 30.1215 82.334 32.8591 82.334 32.8591C82.3746 32.7906 82.4012 32.7164 82.4082 32.6422C82.4012 27.5417 82.3885 19.0168 82.3885 18.2698V17.6445C82.3746 17.916 82.1031 18.1816 81.6681 18.3174L73.185 21.0074C72.5795 21.1965 72.1863 21.6918 72.2536 22.1268Z" fill="#0E121B"/>
<path opacity="0.15" d="M66.6309 34.8198V45.3607C66.7596 45.3537 66.8826 45.3468 66.9905 45.3677L76.8249 47.0183C76.9815 47.045 77.1509 47.0253 77.3272 46.9778V36.4577C77.1439 36.5053 76.9676 36.5192 76.8041 36.4913L66.9684 34.8337C66.8687 34.814 66.7527 34.814 66.6309 34.8198Z" fill="#0E121B"/>
<path d="M63.1594 47.1337C63.8391 46.7393 64.498 46.3321 65.1093 45.9041C65.5443 45.6118 66.1417 45.4018 66.6312 45.3612V34.8203C66.1417 34.854 65.5234 35.0778 65.0966 35.3771C63.8948 36.1984 62.5701 36.9663 61.1096 37.6658C60.525 37.9512 60.199 38.4604 60.3893 38.8479L63.0932 44.2001C63.1304 44.2732 63.1478 44.3486 63.1478 44.4228C63.1454 44.7337 63.1594 47.1337 63.1594 47.1337Z" fill="#2B303B"/>
<path opacity="0.15" d="M45.4033 41.8633V52.3973C45.6481 52.4785 45.872 52.5945 46.0077 52.7371L50.7822 57.7634C50.9586 57.9467 51.2915 58.0697 51.6511 58.1103V47.5763C51.2706 47.5427 50.9377 47.4267 50.7614 47.2364L45.9798 42.2032C45.8522 42.0674 45.6481 41.9526 45.4033 41.8633Z" fill="#0E121B"/>
<path d="M37.3086 41.8032V52.3372C37.5325 52.2757 37.7506 52.2281 37.9338 52.242C40.0729 52.3708 42.2606 52.3777 44.4403 52.249C44.7523 52.2293 45.0991 52.2896 45.4042 52.3986V41.8647C45.098 41.7556 44.7384 41.6953 44.4194 41.715C42.2328 41.8508 40.059 41.8369 37.9199 41.7081C37.7366 41.7011 37.5255 41.7278 37.3086 41.8032Z" fill="#2B303B"/>
<path opacity="0.15" d="M30.9502 47.5305V58.0575C31.297 57.9554 31.6566 57.7651 31.9014 57.5007L36.1806 52.9975C36.466 52.6983 36.894 52.4674 37.3082 52.3387V41.8047C36.8871 41.9276 36.4521 42.1713 36.1598 42.4705L31.8805 46.9667C31.6369 47.2242 31.2901 47.4284 30.9502 47.5305Z" fill="#0E121B"/>
<path d="M19.3105 44.5488V47.1554C19.3175 47.1554 19.3175 47.1554 19.3175 47.1554C19.3175 47.1554 19.3105 48.4325 19.3105 49.9602V51.2919C19.3105 53.1595 19.3175 54.9795 19.3314 55.0619C19.3651 55.3333 19.5553 55.5572 19.8615 55.6326L30.2401 58.1115C30.4442 58.1661 30.6948 58.1313 30.9535 58.057V47.53C30.689 47.6112 30.4303 47.6321 30.2203 47.5846L19.8418 45.0987C19.5344 45.0314 19.3511 44.8203 19.3105 44.5488Z" fill="#2B303B"/>
<path opacity="0.15" d="M15.9609 34.8418V45.3757C16.3751 45.4163 16.7695 45.5184 17.0003 45.6878C17.7265 46.204 18.5013 46.6935 19.3168 47.1552C19.3168 47.1552 19.3017 44.7482 19.3041 44.4199C19.3052 44.283 19.34 44.1369 19.4119 43.9919L21.9048 39.0538C22.1565 38.5585 22.0138 38.0016 21.5927 37.8044C19.9154 37.0307 18.3598 36.1398 16.9806 35.162C16.7555 34.9914 16.3681 34.8754 15.9609 34.8418Z" fill="#0E121B"/>
<path d="M0.00683594 30.0059C0.00683594 30.529 0.0207571 40.2475 0.0207571 40.5259C0.0277171 40.6141 0.054398 40.7022 0.115878 40.7904L4.25244 46.5498C4.3812 46.74 4.65264 46.8827 4.95888 46.9581V36.4381C4.63988 36.3638 4.36728 36.2142 4.22576 36.024L0.0961555 30.2576C0.0335155 30.1822 0.00683594 30.094 0.00683594 30.0059Z" fill="#2B303B"/>
<path d="M62.5594 2.50504L52.1797 0.0284633C51.6914 -0.0921767 50.9466 0.181582 50.5105 0.643262L46.2336 5.13939C45.7986 5.59992 45.0179 5.93518 44.4785 5.9027C42.3394 5.76814 40.1586 5.75769 37.9744 5.89109C37.4118 5.92589 36.703 5.71475 36.406 5.40387L31.6303 0.37875C31.338 0.0713502 30.6119 -0.0701622 30.0226 0.0748378L20.035 2.46213C19.5489 2.57813 19.2438 2.87858 19.2531 3.19294C19.2485 3.2637 19.267 3.33327 19.3007 3.40403L22.0093 8.76903C22.203 9.14487 21.8759 9.66108 21.2901 9.93948C20.586 10.2817 19.9039 10.6366 19.2578 11.0044C18.5768 11.3964 17.9191 11.8094 17.3078 12.234C16.7649 12.6028 15.9344 12.858 15.4275 12.771L5.59065 11.1215C5.08837 11.0368 4.39469 11.3628 4.04089 11.8488L0.277849 17.0967C0.135169 17.2927 0.0690488 17.4969 0.0690488 17.6732C0.0713688 17.6825 0.0678881 17.6871 0.0702081 17.6964C0.0771681 17.9504 0.216368 18.1558 0.482008 18.2428L9.46621 21.0883C9.92789 21.2298 10.2074 21.7506 10.132 22.2355C9.96733 23.3073 9.96501 24.3931 10.1413 25.4858C10.2121 25.9231 9.80957 26.4173 9.21449 26.6087L0.729089 29.2918C0.412409 29.395 0.186208 29.5586 0.0783281 29.7453L0.07485 29.7511C0.03425 29.823 0.0122071 29.8985 0.00756714 29.9831C0.00756714 29.9831 0.00408969 29.9889 0.00292969 30.0029C0.00292969 30.0029 0.0029265 30.0029 0.0087265 30.0063C0.0087265 30.0945 0.0330874 30.1815 0.0957274 30.2627L4.22649 36.0244C4.47589 36.3666 5.15333 36.5673 5.74029 36.4652L15.2743 34.8644C15.8613 34.7635 16.6188 34.9004 16.9818 35.1602C18.3611 36.1404 19.9109 37.0278 21.5905 37.8062C22.0116 38.0057 22.1543 38.5579 21.9026 39.0578L19.4144 43.9913C19.165 44.4855 19.3517 44.9901 19.8378 45.1014L30.2198 47.5873C30.7058 47.6987 31.4517 47.4249 31.8832 46.9702L36.1624 42.4682C36.594 42.0135 37.3804 41.6817 37.9198 41.7142C40.0624 41.843 42.2374 41.8511 44.4216 41.7165C44.99 41.6852 45.6953 41.901 45.9865 42.2095L50.768 47.2381C51.0592 47.5455 51.7807 47.6836 52.3792 47.5374L62.3645 45.1548C62.9573 45.0051 63.2867 44.5864 63.0965 44.2047L60.3914 38.8479C60.2011 38.4662 60.5248 37.9558 61.1082 37.6693C62.5687 36.971 63.8992 36.2054 65.0963 35.3771C65.6346 35.0048 66.464 34.7496 66.9709 34.8377L76.8042 36.4931C77.3123 36.5812 78.006 36.2552 78.3551 35.7657L82.124 30.5214C82.2609 30.3219 82.3328 30.1212 82.3351 29.939C82.3339 29.6746 82.1878 29.4577 81.914 29.373L72.9344 26.5298C72.4704 26.379 72.1967 25.8617 72.2686 25.3814C72.4356 24.3038 72.438 23.2192 72.2582 22.1311C72.1874 21.6938 72.5853 21.1973 73.1862 21.0082L81.6693 18.3158C82.1077 18.1801 82.3768 17.9168 82.3931 17.6477C82.3942 17.6338 82.3954 17.6198 82.3954 17.6059C82.3954 17.5178 82.3664 17.4273 82.3084 17.3496L78.1719 11.5855C77.9271 11.2456 77.2508 11.0461 76.6581 11.1447L67.1298 12.7479C66.537 12.8465 65.7796 12.7096 65.4188 12.4579C64.6926 11.9359 63.9189 11.4451 63.1069 10.9835C62.3773 10.5693 61.6059 10.1761 60.8136 9.80609C60.389 9.61237 60.2487 9.0544 60.5016 8.55444L62.9874 3.62677C63.0582 3.49105 63.0953 3.35067 63.1 3.22887C63.1011 3.21495 63.1011 3.19989 63.0988 3.19177C63.0965 2.85885 62.8981 2.59088 62.5594 2.50504ZM34.216 14.0679C43.525 11.8396 54.2039 14.3939 58.0656 19.7717C59.5689 21.8724 59.8172 24.0857 58.9959 26.1435C58.9715 26.2247 58.9356 26.299 58.8996 26.3744C58.8718 26.4474 58.8393 26.5159 58.8045 26.5913C58.772 26.6597 58.7395 26.7293 58.7012 26.7954C58.6978 26.8152 58.6908 26.8268 58.6815 26.843C58.0308 28.097 56.9775 29.2721 55.5658 30.3068C55.1006 30.6548 54.5856 30.9877 54.0392 31.2974C52.4059 32.2335 50.4432 33.0014 48.1858 33.5408C41.1968 35.2089 33.4469 34.1916 28.38 31.3102C27.8209 30.9946 27.2966 30.6559 26.8128 30.2882C25.8222 29.5621 24.9835 28.7408 24.3374 27.8383C22.6055 25.429 22.5452 22.8596 23.8386 20.5593C23.8699 20.5036 23.9024 20.4479 23.9349 20.3923C24.0045 20.2751 24.0764 20.1591 24.153 20.0431C24.2748 19.861 24.4 19.6788 24.5404 19.5002C24.6576 19.3482 24.7805 19.1986 24.9093 19.0525C24.9673 18.9898 25.0195 18.9248 25.0856 18.861C25.168 18.7694 25.2526 18.6859 25.3408 18.5977C27.271 16.6269 30.316 15.0017 34.216 14.0679Z" fill="#525866"/>
</svg>
