<svg width="115" height="114" viewBox="0 0 115 114" fill="none" xmlns="http://www.w3.org/2000/svg">
<path d="M103.704 0.403801L15.4512 51.2942C14.5336 51.8231 13.79 53.1119 13.79 54.171V106.56C13.79 107.619 14.5382 108.9 15.4604 109.421L21.4101 112.756C22.3323 113.276 23.8241 113.269 24.7416 112.739L112.994 61.849C113.912 61.32 114.656 60.0313 114.656 58.9722V6.58312C114.656 5.52404 113.907 4.2434 112.985 3.72256L107.035 0.387561C106.113 -0.133279 104.622 -0.125159 103.704 0.403801Z" fill="url(#paint0_linear_35_62878)"/>
<path d="M23.0811 111.782V59.3926C23.0811 58.3335 23.8246 57.0459 24.7422 56.5158L112.995 5.62541C113.913 5.09529 114.656 5.52564 114.656 6.58472V58.9727C114.656 60.0317 113.913 61.3193 112.995 61.8494L24.7422 112.74C23.8246 113.27 23.0811 112.841 23.0811 111.782Z" fill="url(#paint1_linear_35_62878)"/>
<path opacity="0.2" d="M24.7428 112.738C23.7637 113.299 22.2441 113.269 21.4089 112.757L15.4628 109.416C14.5417 108.902 13.79 107.621 13.79 106.562V54.1694C13.79 53.6172 13.9977 53.0117 14.319 52.4746L23.5712 57.7573C23.2649 58.2711 23.0805 58.8616 23.0805 59.3917V111.777C23.0816 112.746 23.7649 113.305 24.7428 112.738Z" fill="black"/>
<path opacity="0.4" d="M114.635 6.2829C114.505 5.44654 113.821 5.14726 112.993 5.62286L24.7462 56.5144C24.2857 56.7823 23.8716 57.2359 23.5723 57.7567L14.312 52.4741C14.6113 51.9753 15.0103 51.5461 15.4558 51.2932L103.71 0.401698C104.623 -0.127262 106.111 -0.135382 107.039 0.386618L112.985 3.72046C113.821 4.19606 114.519 5.29342 114.635 6.2829Z" fill="white"/>
<path d="M13.7909 77.0117L0.42656 90.6058C-0.286841 91.3308 -0.0385883 92.4107 0.678292 92.8782C0.953212 93.0568 9.9293 98.1991 9.9293 98.1991L23.0814 82.3628L13.7909 77.0117Z" fill="url(#paint2_linear_35_62878)"/>
<path opacity="0.1" d="M13.7909 77.0117L0.42656 90.6058C-0.286841 91.3308 -0.0385883 92.4107 0.678292 92.8782C0.953212 93.0568 9.9293 98.1991 9.9293 98.1991L23.0814 82.3628L13.7909 77.0117Z" fill="black"/>
<path d="M23.0816 82.3633L9.71729 95.9573C8.73129 96.9607 9.58272 98.6427 10.9759 98.442L23.0816 96.6951C24.3808 96.6951 24.3808 82.3633 23.0816 82.3633Z" fill="url(#paint3_linear_35_62878)"/>
<path d="M31.8361 73.4163C31.8895 71.8654 32.1052 70.3099 32.4845 68.7462C32.8627 67.1837 33.4021 65.7058 34.0981 64.3127C34.7941 62.9207 35.6409 61.6447 36.6373 60.4847C37.6326 59.327 38.7845 58.37 40.0883 57.616C41.3759 56.8736 42.522 56.5036 43.5265 56.5059C44.5323 56.5105 45.3826 56.8063 46.0797 57.3944C46.7757 57.9837 47.314 58.8409 47.6933 59.965C48.0738 61.0902 48.2895 62.3963 48.3429 63.8869C48.3765 65.0353 48.3951 66.2464 48.3951 67.5212C48.3951 68.7984 48.3765 70.0025 48.3429 71.1346C48.2895 72.6855 48.0738 74.2423 47.6933 75.8048C47.314 77.3685 46.7757 78.8521 46.0797 80.2592C45.3826 81.6663 44.5334 82.9434 43.5265 84.0941C42.522 85.2449 41.3759 86.1926 40.0883 86.935C38.7845 87.689 37.6326 88.0671 36.6373 88.0718C35.6409 88.0776 34.7941 87.7795 34.0981 87.1763C33.4021 86.5731 32.8627 85.71 32.4845 84.5848C32.1052 83.4596 31.8895 82.1523 31.8361 80.6629C31.8001 79.5713 31.7827 78.3869 31.7827 77.1098C31.7827 75.8373 31.8001 74.6053 31.8361 73.4163ZM43.4477 73.7574C43.4651 73.2586 43.4825 72.7053 43.4999 72.0986C43.5173 71.4919 43.5265 70.8759 43.5265 70.2507C43.5265 69.6266 43.5173 69.0269 43.4999 68.4527C43.4825 67.8797 43.4651 67.3669 43.4477 66.9157C43.4117 66.2568 43.3189 65.6861 43.1693 65.2024C43.0196 64.7198 42.8074 64.3463 42.5348 64.083C42.2622 63.8197 41.9211 63.684 41.5163 63.6735C41.1103 63.6631 40.6347 63.8162 40.0872 64.1305C39.5408 64.4461 39.0652 64.8428 38.658 65.3219C38.252 65.8009 37.9133 66.3287 37.6396 66.9076C37.3658 67.4864 37.1547 68.1035 37.0051 68.7601C36.8554 69.4178 36.7626 70.0953 36.7266 70.7947C36.6918 71.2761 36.6698 71.8121 36.6617 72.4002C36.6524 72.9895 36.6489 73.5961 36.6489 74.2202C36.6489 74.8443 36.6535 75.4521 36.6617 76.0449C36.6698 76.6365 36.6918 77.1678 36.7266 77.6353C36.7985 78.953 37.1025 79.9031 37.6396 80.4889C38.1778 81.0735 38.9933 81.0515 40.086 80.4204C41.1799 79.7894 41.9896 78.873 42.5197 77.6712C43.051 76.4718 43.3595 75.1668 43.4477 73.7574Z" fill="white"/>
<path d="M65.1858 59.903C65.2032 60.3009 65.2125 60.8183 65.2125 61.4563C65.2125 62.0943 65.2032 62.6221 65.1858 63.0397C65.1499 64.3621 64.9562 65.6961 64.6035 67.0393C64.2509 68.3838 63.7672 69.6609 63.1477 70.872C62.5318 72.083 61.7859 73.1862 60.9136 74.178C60.0401 75.1709 59.0657 75.9783 57.9903 76.5989C56.915 77.2195 55.9406 77.5385 55.0683 77.5524C54.1948 77.5687 53.4513 77.3262 52.8342 76.8274C52.2171 76.3286 51.7322 75.6106 51.3795 74.6745C51.0269 73.7383 50.8332 72.6282 50.7972 71.3453C50.7798 70.9474 50.7705 70.43 50.7705 69.792C50.7705 69.154 50.7798 68.6262 50.7972 68.2086C50.8158 66.8967 51.0002 65.5673 51.3528 64.224C51.7066 62.8796 52.195 61.6001 52.8214 60.3833C53.4466 59.1664 54.196 58.0563 55.0695 57.0494C55.9418 56.0437 56.9174 55.2294 57.9915 54.6076C59.068 53.987 60.0424 53.6762 60.9147 53.6738C61.787 53.6727 62.5364 53.9186 63.1616 54.4116C63.7869 54.9058 64.2729 55.6226 64.6163 56.5645C64.9608 57.5088 65.151 58.6212 65.1858 59.903ZM55.5601 68.3942C55.6135 69.3953 55.8548 70.0635 56.2863 70.3964C56.7178 70.7316 57.2874 70.6945 57.9915 70.2873C58.6968 69.8802 59.2652 69.2607 59.6979 68.4255C60.1306 67.5927 60.373 66.645 60.4252 65.5836C60.4611 65.1555 60.4786 64.6834 60.4786 64.1683C60.4786 63.6533 60.4611 63.2009 60.4252 62.8146C60.3718 61.8135 60.1306 61.1465 59.6979 60.8125C59.2664 60.4784 58.6968 60.5144 57.9915 60.9215C57.2862 61.3287 56.7178 61.9493 56.2863 62.7833C55.8548 63.6173 55.6123 64.5639 55.5601 65.6253C55.523 66.0533 55.5068 66.5255 55.5068 67.0405C55.5068 67.5555 55.523 68.0068 55.5601 68.3942Z" fill="white"/>
<path d="M76.2452 66.0607C75.7325 66.3565 75.2848 66.534 74.8962 66.5944C74.5076 66.6558 74.1723 66.6454 73.8916 66.563C73.6097 66.483 73.3707 66.3554 73.177 66.1814C72.9821 66.0086 72.8244 65.8357 72.7015 65.6629V74.3362C72.7015 74.6343 72.6295 74.9324 72.4892 75.2317C72.3476 75.5298 72.1818 75.7351 71.9869 75.8477L68.6542 77.7721C68.4593 77.8846 68.2923 77.8719 68.1508 77.7361C68.0104 77.5993 67.9385 77.3835 67.9385 77.0854V50.3718C67.9385 50.0736 68.0104 49.7744 68.1508 49.4762C68.2923 49.1781 68.4593 48.9728 68.6542 48.8603L71.8535 47.0124C72.0484 46.8999 72.2143 46.9126 72.3558 47.0483C72.4961 47.1841 72.568 47.401 72.568 47.6991V48.6352C72.727 48.2722 72.8998 47.8882 73.0842 47.4822C73.2687 47.0773 73.4983 46.6795 73.7721 46.292C74.0447 45.9046 74.38 45.5206 74.7767 45.1413C75.1734 44.7643 75.6629 44.4059 76.2452 44.0695C77.0375 43.6113 77.7869 43.3619 78.4933 43.3213C79.1986 43.2807 79.8157 43.4941 80.3447 43.9628C80.8736 44.4326 81.3005 45.1552 81.6276 46.1343C81.9536 47.1121 82.1346 48.3939 82.1694 49.975C82.1868 50.3717 82.1961 50.9169 82.1961 51.6083C82.1961 52.2997 82.1868 52.8565 82.1694 53.2729C82.1334 54.8969 81.9536 56.384 81.6276 57.7412C81.3005 59.0961 80.8736 60.3141 80.3447 61.3929C79.8157 62.4717 79.1986 63.4044 78.4933 64.192C77.7869 64.9796 77.0375 65.6037 76.2452 66.0607ZM77.4354 55.5187C77.4888 54.7276 77.4888 53.9677 77.4354 53.2381C77.382 52.3194 77.1802 51.6083 76.8275 51.1049C76.4749 50.6037 75.8845 50.591 75.0551 51.0689C74.6665 51.2928 74.3313 51.5828 74.0505 51.9343C73.7687 52.2881 73.5343 52.6732 73.3487 53.092C73.1643 53.5119 73.0181 53.9422 72.9137 54.3819C72.8082 54.8238 72.7363 55.2577 72.7015 55.6857C72.6655 56.1137 72.6481 56.5986 72.6481 57.1415C72.6481 57.6844 72.6655 58.1496 72.7015 58.537C72.7363 58.9233 72.807 59.2771 72.9137 59.5961C73.0181 59.9151 73.1643 60.1772 73.3487 60.3825C73.5343 60.5867 73.7687 60.7039 74.0505 60.7305C74.3313 60.7584 74.6665 60.6598 75.0551 60.4359C75.8833 59.958 76.4749 59.2643 76.8275 58.3537C77.179 57.4454 77.382 56.5 77.4354 55.5187Z" fill="white"/>
<path d="M92.7485 49.7741C92.7485 49.476 92.6824 49.2834 92.5502 49.1964C92.4179 49.1094 92.1929 49.1036 91.8762 49.1779C91.5584 49.2533 91.1384 49.3867 90.6187 49.5769C90.0991 49.7695 89.4506 49.9806 88.6746 50.2115C87.336 50.6047 86.3036 50.44 85.5809 49.7173C84.857 48.9946 84.4963 47.7105 84.4963 45.8638C84.4963 44.9416 84.6448 44.0008 84.9452 43.0392C85.2445 42.0787 85.6632 41.1449 86.2015 40.2366C86.7386 39.3295 87.387 38.4862 88.1456 37.709C88.9043 36.9318 89.7499 36.2729 90.6837 35.7335C91.6013 35.2045 92.4481 34.8855 93.2229 34.7776C93.999 34.6686 94.6683 34.7162 95.2332 34.9203C95.797 35.1233 96.2424 35.4783 96.5696 35.9806C96.8944 36.484 97.0765 37.0663 97.1113 37.724C97.1287 38.0129 97.0625 38.3087 96.9129 38.6126C96.7621 38.9177 96.5904 39.1242 96.3967 39.2367L93.2485 41.0544C93.0536 41.1669 92.9005 41.189 92.7856 41.1182C92.6708 41.0486 92.5339 40.9778 92.375 40.9082C92.2161 40.8375 92.0096 40.8073 91.7544 40.8189C91.498 40.8317 91.1407 40.9697 90.6825 41.2342C90.2765 41.4685 89.9378 41.7527 89.6641 42.0868C89.3903 42.422 89.2546 42.7921 89.2546 43.1981C89.2546 43.4974 89.2975 43.7027 89.3857 43.814C89.4738 43.9266 89.6502 43.9532 89.9158 43.8952C90.1803 43.8384 90.5492 43.7271 91.0259 43.56C91.5015 43.3941 92.1279 43.1818 92.9039 42.9232C94.5082 42.4046 95.6752 42.5647 96.4083 43.4046C97.1403 44.2444 97.5057 45.4787 97.5057 47.1073C97.5057 48.0307 97.356 48.9795 97.0568 49.9528C96.7563 50.9283 96.3155 51.8877 95.7332 52.8342C95.152 53.7819 94.4467 54.6705 93.6185 55.5011C92.7879 56.3328 91.846 57.0543 90.7881 57.6645C89.7302 58.2758 88.7999 58.6284 87.9983 58.7247C87.1967 58.821 86.5205 58.7432 85.9741 58.488C85.4277 58.234 85.009 57.8512 84.719 57.3396C84.4278 56.8304 84.2643 56.2585 84.2283 55.6275C84.2109 55.3386 84.277 55.0429 84.4267 54.7389C84.5752 54.4362 84.748 54.2274 84.9417 54.1148L88.2222 52.2206C88.4147 52.1092 88.5563 52.1034 88.6444 52.2009C88.7326 52.2995 88.8486 52.3969 88.9889 52.4897C89.1305 52.586 89.3335 52.6312 89.5968 52.6277C89.8613 52.6242 90.258 52.47 90.7869 52.1649C91.3159 51.8598 91.7741 51.4863 92.1616 51.0455C92.5548 50.6058 92.7485 50.1825 92.7485 49.7741Z" fill="white"/>
<path d="M104.94 39.231C104.94 39.5303 104.869 39.8296 104.728 40.1277C104.587 40.4258 104.419 40.6311 104.225 40.7425L100.893 42.6669C100.699 42.7795 100.532 42.7679 100.391 42.6321C100.25 42.4964 100.179 42.2795 100.179 41.9802V24.4294C100.179 24.1313 100.25 23.832 100.391 23.5339C100.532 23.2358 100.699 23.0305 100.893 22.9179L104.225 20.9935C104.419 20.8821 104.587 20.8937 104.728 21.0295C104.869 21.1652 104.94 21.3821 104.94 21.6802V39.231ZM104.94 47.9867C104.94 48.286 104.869 48.5841 104.728 48.8822C104.587 49.1815 104.419 49.3868 104.225 49.4982L100.893 51.4226C100.699 51.5351 100.532 51.5235 100.391 51.3867C100.25 51.2509 100.179 51.0352 100.179 50.7359V46.6237C100.179 46.3256 100.25 46.0263 100.391 45.7282C100.532 45.4301 100.699 45.2247 100.893 45.1122L104.225 43.1878C104.419 43.0764 104.587 43.088 104.728 43.2237C104.869 43.3595 104.94 43.5764 104.94 43.8745V47.9867Z" fill="white"/>
<defs>
<linearGradient id="paint0_linear_35_62878" x1="13.79" y1="56.5718" x2="114.656" y2="56.5718" gradientUnits="userSpaceOnUse">
<stop stop-color="#EC1577"/>
<stop offset="1" stop-color="#F1622A"/>
</linearGradient>
<linearGradient id="paint1_linear_35_62878" x1="23.0811" y1="59.1827" x2="114.656" y2="59.1827" gradientUnits="userSpaceOnUse">
<stop stop-color="#EC1577"/>
<stop offset="1" stop-color="#F1622A"/>
</linearGradient>
<linearGradient id="paint2_linear_35_62878" x1="0" y1="87.6054" x2="23.0814" y2="87.6054" gradientUnits="userSpaceOnUse">
<stop stop-color="#EC1577"/>
<stop offset="1" stop-color="#F1622A"/>
</linearGradient>
<linearGradient id="paint3_linear_35_62878" x1="9.29102" y1="90.4109" x2="24.056" y2="90.4109" gradientUnits="userSpaceOnUse">
<stop stop-color="#EC1577"/>
<stop offset="1" stop-color="#F1622A"/>
</linearGradient>
</defs>
</svg>
